<svg width="44" height="44" viewBox="0 0 44 44" fill="none" xmlns="http://www.w3.org/2000/svg">
<path d="M34.8633 22C35.4911 22 36.0048 21.4902 35.9539 20.8645C35.6944 17.6741 34.3472 14.6557 32.1195 12.3255C29.629 9.72043 26.2297 8.17615 22.6293 8.01415C19.0288 7.85215 15.5046 9.08492 12.7902 11.4558C10.0757 13.8268 8.38024 17.1532 8.05657 20.7427C7.7329 24.3322 8.80601 27.9083 11.0525 30.7266C13.2991 33.5448 16.5459 35.3881 20.1173 35.8728C23.6886 36.3575 27.3093 35.4462 30.2257 33.3286C32.8343 31.4345 34.6996 28.7058 35.5257 25.6134C35.6877 25.0069 35.2735 24.4134 34.6558 24.3011C34.0382 24.1888 33.4518 24.6006 33.2803 25.2045C32.5654 27.7215 31.0248 29.9389 28.89 31.489C26.4471 33.2628 23.4144 34.0261 20.423 33.6201C17.4316 33.2141 14.712 31.6701 12.8302 29.3095C10.9485 26.9489 10.0497 23.9535 10.3208 20.9469C10.5919 17.9402 12.0121 15.154 14.2857 13.1681C16.5594 11.1821 19.5113 10.1495 22.5271 10.2852C25.5429 10.4209 28.3902 11.7144 30.4763 13.8965C32.2994 15.8035 33.4184 18.2608 33.6716 20.8651C33.7323 21.4899 34.2355 22 34.8633 22Z" fill="#FF0000"/>
<path d="M34.0072 22C35.1078 22 36.0146 21.1033 35.8584 20.0138C35.4466 17.1403 34.1482 14.4476 32.1195 12.3255C29.629 9.72043 26.2297 8.17615 22.6293 8.01415C19.0288 7.85215 15.5046 9.08492 12.7902 11.4558C10.0757 13.8268 8.38024 17.1532 8.05657 20.7427C7.7329 24.3322 8.80601 27.9083 11.0525 30.7266C13.2991 33.5448 16.5459 35.3881 20.1173 35.8728C23.6886 36.3575 27.3093 35.4462 30.2257 33.3286C32.6012 31.6038 34.3604 29.1868 35.2796 26.4332C35.6281 25.3892 34.8964 24.3448 33.8135 24.1479C32.7307 23.951 31.7114 24.6814 31.3043 25.7039C30.6083 27.4521 29.4282 28.9822 27.8839 30.1035C25.7978 31.6183 23.2079 32.2701 20.6532 31.9234C18.0986 31.5767 15.7761 30.2582 14.1691 28.2422C12.5622 26.2263 11.7946 23.6683 12.0261 21.1007C12.2576 18.533 13.4704 16.1536 15.4121 14.4576C17.3538 12.7617 19.8747 11.8799 22.4501 11.9957C25.0256 12.1116 27.4571 13.2163 29.2386 15.0797C30.5574 16.4592 31.4448 18.1758 31.8168 20.0202C32.0344 21.0991 32.9066 22 34.0072 22Z" fill="#FF0000"/>
<path d="M39.5 19.4019C41.5 20.5566 41.5 23.4434 39.5 24.5981L15.5 38.4545C13.5 39.6092 11 38.1658 11 35.8564V8.1436C11 5.83419 13.5 4.39082 15.5 5.54552L39.5 19.4019Z" fill="black"/>
<path d="M39.5 19.4019C41.5 20.5566 41.5 23.4434 39.5 24.5981L15.5 38.4545C13.5 39.6092 11 38.1658 11 35.8564V8.1436C11 5.83419 13.5 4.39082 15.5 5.54552L39.5 19.4019Z" fill="black"/>
<path d="M18.0874 17.3359H20.1821L22.5625 24.7554L24.9429 17.3359H27.0376L23.4121 28H21.7129L18.0874 17.3359ZM16.813 17.3359H18.981L19.3838 25.5098V28H16.813V17.3359ZM26.144 17.3359H28.3193V28H25.7412V25.5098L26.144 17.3359Z" fill="white"/>
</svg>
