<svg width="16" height="16" viewBox="0 0 16 16" fill="none" xmlns="http://www.w3.org/2000/svg">
<path d="M13.3333 11.3092C12.6578 11.3092 12.0533 11.5502 11.5911 11.9277L5.25333 8.59438C5.29778 8.40964 5.33333 8.2249 5.33333 8.03213C5.33333 7.83936 5.29778 7.65462 5.25333 7.46988L11.52 4.16867C12 4.57028 12.6311 4.81928 13.3333 4.81928C14.8089 4.81928 16 3.74297 16 2.40964C16 1.07631 14.8089 0 13.3333 0C11.8578 0 10.6667 1.07631 10.6667 2.40964C10.6667 2.60241 10.7022 2.78715 10.7467 2.97189L4.48 6.27309C4 5.87149 3.36889 5.62249 2.66667 5.62249C1.19111 5.62249 0 6.69879 0 8.03213C0 9.36546 1.19111 10.4418 2.66667 10.4418C3.36889 10.4418 4 10.1928 4.48 9.79116L10.8089 13.1325C10.7644 13.3012 10.7378 13.4779 10.7378 13.6546C10.7378 14.9478 11.9022 16 13.3333 16C14.7644 16 15.9289 14.9478 15.9289 13.6546C15.9289 12.3614 14.7644 11.3092 13.3333 11.3092Z" fill="black"/>
</svg>
