<svg width="19" height="21" viewBox="0 0 19 21" fill="none" xmlns="http://www.w3.org/2000/svg">
<path d="M15.1608 4.99633C13.373 4.5173 11.4744 4.67297 9.78856 5.43683C8.10269 6.20068 6.73384 7.52546 5.91523 9.18543C5.09663 10.8454 4.87892 12.7379 5.2992 14.5403C5.50398 15.4186 5.85404 16.249 6.32903 17" stroke="white" stroke-width="2" stroke-linejoin="round"/>
<path d="M15.3581 4.79556L16.0652 4.08846C16.4557 4.47898 16.4557 5.11214 16.0652 5.50267L15.3581 4.79556ZM13.2368 1.26003L16.0652 4.08846L14.651 5.50267L11.8226 2.67424L13.2368 1.26003ZM16.0652 5.50267L13.2368 8.3311L11.8226 6.91688L14.651 4.08846L16.0652 5.50267Z" fill="white"/>
</svg>
